<svg width="24" height="24" viewBox="0 0 24 24" fill="none" xmlns="http://www.w3.org/2000/svg">
<path d="M14.5716 11.1427C12.6782 11.1427 11.1431 9.60757 11.1431 7.71415L11.1431 5.99986C11.1431 4.10643 12.6782 2.57129 14.5716 2.57129C16.4651 2.57129 18.0002 4.10643 18.0002 5.99986V7.71415C18.0002 9.60757 16.4651 11.1427 14.5716 11.1427Z" stroke="#171A1F" stroke-width="2.05714" stroke-miterlimit="10" stroke-linecap="square"/>
<path d="M5.14307 7.71436L5.14307 12.8572" stroke="#171A1F" stroke-width="2.05714" stroke-miterlimit="10" stroke-linecap="square"/>
<path d="M2.57129 10.2856L7.71415 10.2856" stroke="#171A1F" stroke-width="2.05714" stroke-miterlimit="10" stroke-linecap="square"/>
<path d="M21.4286 21.4284L7.71436 21.4284L7.71436 17.9021C7.71436 16.8333 8.37007 15.8767 9.3695 15.4979C10.5584 15.047 12.3421 14.5713 14.5715 14.5713C16.8009 14.5713 18.5846 15.047 19.7735 15.4979C20.7729 15.8759 21.4286 16.8333 21.4286 17.9021V21.4284Z" stroke="#171A1F" stroke-width="2.05714" stroke-miterlimit="10" stroke-linecap="square"/>
</svg>
