<svg width="24" height="25" viewBox="0 0 24 25" fill="none" xmlns="http://www.w3.org/2000/svg">
<path d="M21.4286 6.04932V15.4779C21.4286 15.9325 21.248 16.3686 20.9265 16.6901C20.605 17.0116 20.1689 17.1922 19.7143 17.1922H18V20.6207L12.8571 17.1922H12" stroke="#1DD75B" stroke-width="2.05714" stroke-miterlimit="10" stroke-linecap="square"/>
<path d="M16.2856 3.47791L4.28557 3.47791C3.83092 3.47791 3.39488 3.65852 3.07339 3.98001C2.7519 4.3015 2.57129 4.73753 2.57129 5.19219L2.57129 12.0493C2.57129 12.504 2.7519 12.94 3.07339 13.2615C3.39488 13.583 3.83092 13.7636 4.28557 13.7636H5.99986L5.99986 18.0493L11.9999 13.7636L16.2856 13.7636C16.7402 13.7636 17.1763 13.583 17.4978 13.2615C17.8192 12.94 17.9999 12.504 17.9999 12.0493V5.19219C17.9999 4.73753 17.8192 4.3015 17.4978 3.98001C17.1763 3.65852 16.7402 3.47791 16.2856 3.47791Z" stroke="#1DD75B" stroke-width="2.05714" stroke-miterlimit="10" stroke-linecap="square"/>
</svg>
