<svg width="24" height="24" viewBox="0 0 24 24" fill="none" xmlns="http://www.w3.org/2000/svg">
<path d="M18.0001 19.7143H21.4286V16.0088C21.4285 15.8375 21.3771 15.6702 21.281 15.5285C21.1849 15.3867 21.0486 15.2769 20.8895 15.2134L17.6821 13.9277C17.5233 13.8642 17.3871 13.7548 17.291 13.6133C17.195 13.4719 17.1434 13.305 17.1429 13.134L17.1429 12.3814C17.6628 12.0831 18.0949 11.6531 18.3958 11.1347C18.6968 10.6164 18.8559 10.0279 18.8572 9.42854V7.71425C18.8573 7.11235 18.699 6.52101 18.3982 5.9997C18.0973 5.47838 17.6645 5.04546 17.1433 4.74445C16.622 4.44343 16.0307 4.28495 15.4288 4.28491C14.8269 4.28488 14.2356 4.4433 13.7144 4.74425" stroke="#6F7787" stroke-width="2.05714" stroke-miterlimit="10" stroke-linecap="square"/>
<path d="M14.0321 16.0705L10.8247 14.7848C10.6659 14.7214 10.5298 14.6119 10.4337 14.4705C10.3376 14.329 10.286 14.1621 10.2856 13.9911V13.6045C13.0884 13.23 13.7141 12 13.7141 12C13.7141 12 11.9999 10.2857 11.9999 8.57139C11.9999 7.66208 11.6386 6.79001 10.9957 6.14703C10.3527 5.50405 9.4806 5.14282 8.57129 5.14282C7.66198 5.14282 6.7899 5.50405 6.14692 6.14703C5.50394 6.79001 5.14272 7.66208 5.14272 8.57139C5.14272 10.2857 3.42843 12 3.42843 12C3.42843 12 4.05415 13.23 6.857 13.6045V13.9911C6.85689 14.1624 6.80548 14.3297 6.70938 14.4715C6.61328 14.6133 6.47691 14.723 6.31786 14.7865L3.11043 16.0723C2.95165 16.1357 2.81547 16.2452 2.71939 16.3866C2.62332 16.528 2.57174 16.695 2.57129 16.866L2.57129 19.7143L14.5713 19.7143V16.866C14.5712 16.6947 14.5198 16.5274 14.4237 16.3856C14.3276 16.2438 14.1912 16.1341 14.0321 16.0705Z" stroke="#6F7787" stroke-width="2.05714" stroke-miterlimit="10" stroke-linecap="square"/>
</svg>
