<svg width="25" height="25" viewBox="0 0 25 25" fill="none" xmlns="http://www.w3.org/2000/svg">
<path d="M15.9828 4.21913C15.2501 4.2232 14.5256 4.37283 13.8512 4.65932C13.1768 4.94581 12.5661 5.36345 12.0545 5.88798C11.2951 5.10288 10.3186 4.56238 9.25002 4.33572C8.18148 4.10905 7.0696 4.20655 6.05682 4.61571C5.04403 5.02488 4.17646 5.72708 3.56523 6.63237C2.954 7.53766 2.62695 8.60481 2.62598 9.69712C2.62598 14.7063 11.1923 21.7451 11.5574 22.04C11.6979 22.1541 11.8735 22.2164 12.0545 22.2164C12.2356 22.2164 12.4111 22.1541 12.5517 22.04C12.9168 21.7451 21.4831 14.7063 21.4831 9.69712C21.4784 8.24187 20.8966 6.84792 19.8655 5.82098C18.8344 4.79405 17.4381 4.21798 15.9828 4.21913Z" fill="#DE3B40"/>
</svg>
