<svg width="24" height="25" viewBox="0 0 24 25" fill="none" xmlns="http://www.w3.org/2000/svg">
<path d="M17.9907 19.3308C17.8749 17.2839 16.7075 16.6342 15.0001 16.0651C13.6955 15.6305 13.3364 14.2608 13.2378 13.5339" stroke="#6F7787" stroke-width="2.05714" stroke-miterlimit="10"/>
<path d="M10.7615 13.5331C10.6647 14.2565 10.3124 15.6279 9.0001 16.0651C7.29267 16.6342 6.12353 17.2822 6.00781 19.3291" stroke="#6F7787" stroke-width="2.05714" stroke-miterlimit="10"/>
<path d="M11.9999 13.7636C10.1064 13.7636 8.57129 12.2285 8.57129 10.335L8.57129 9.47789C8.57129 7.58446 10.1064 6.04932 11.9999 6.04932C13.8933 6.04932 15.4284 7.58446 15.4284 9.47789V10.335C15.4284 12.2285 13.8933 13.7636 11.9999 13.7636Z" stroke="#6F7787" stroke-width="2.05714" stroke-miterlimit="10" stroke-linecap="square"/>
<path d="M11.9999 21.4779C17.2071 21.4779 21.4284 17.2566 21.4284 12.0493C21.4284 6.84204 17.2071 2.62073 11.9999 2.62073C6.7926 2.62073 2.57129 6.84204 2.57129 12.0493C2.57129 17.2566 6.7926 21.4779 11.9999 21.4779Z" stroke="#6F7787" stroke-width="2.05714" stroke-miterlimit="10" stroke-linecap="square"/>
</svg>
