<svg width="24" height="24" viewBox="0 0 24 24" fill="none" xmlns="http://www.w3.org/2000/svg">
<path d="M11.143 12.8571C8.72243 12.8571 6.57528 13.404 5.16443 13.8797C4.123 14.232 3.42871 15.2134 3.42871 16.3131L3.42871 19.7143C3.42871 19.7143 11.9641 19.7143 12.0001 19.7143" stroke="#171A1F" stroke-width="2.05714" stroke-miterlimit="10"/>
<path d="M11.1431 12.8571C8.77656 12.8571 6.85742 10.0808 6.85742 7.71427V6.85713C6.85742 4.49055 8.77656 2.57141 11.1431 2.57141C13.5097 2.57141 15.4288 4.49055 15.4288 6.85713V7.71427C15.4288 10.0808 13.5097 12.8571 11.1431 12.8571Z" stroke="#171A1F" stroke-width="2.05714" stroke-miterlimit="10" stroke-linecap="square"/>
<path d="M20.5716 15.4286L15.4287 20.5714" stroke="#171A1F" stroke-width="2.05714" stroke-miterlimit="10" stroke-linecap="square"/>
<path d="M15.4287 15.4286L20.5716 20.5714" stroke="#171A1F" stroke-width="2.05714" stroke-miterlimit="10" stroke-linecap="square"/>
</svg>
