<svg width="38" height="39" viewBox="0 0 38 39" fill="none" xmlns="http://www.w3.org/2000/svg">
<path d="M19.0002 22.8493C21.0989 22.8493 22.8002 21.1479 22.8002 19.0493C22.8002 16.9506 21.0989 15.2493 19.0002 15.2493C16.9015 15.2493 15.2002 16.9506 15.2002 19.0493C15.2002 21.1479 16.9015 22.8493 19.0002 22.8493Z" stroke="#171A1F" stroke-width="2.28" stroke-miterlimit="10" stroke-linecap="square"/>
<path d="M29.4499 19.0493C29.4496 18.3554 29.3805 17.6633 29.2437 16.9831L32.7654 14.3943L29.9154 9.45432L25.8997 11.2156C24.8603 10.297 23.6478 9.59548 22.3334 9.15222L21.8499 4.79932L16.1499 4.79932L15.6663 9.15222C14.3519 9.59548 13.1394 10.297 12.1 11.2156L8.08438 9.45432L5.23437 14.3943L8.75603 16.985C8.48117 18.3488 8.48117 19.7537 8.75603 21.1175L5.23437 23.7043L8.08438 28.6443L12.1 26.8849C13.1394 27.8035 14.3519 28.5051 15.6663 28.9483L16.1499 33.2993H21.8499L22.3334 28.9464C23.6478 28.5032 24.8603 27.8016 25.8997 26.883L29.9154 28.6443L32.7654 23.7043L29.2437 21.1137C29.3804 20.434 29.4494 19.7425 29.4499 19.0493Z" stroke="#171A1F" stroke-width="2.28" stroke-miterlimit="10" stroke-linecap="square"/>
</svg>
