<svg width="24" height="25" viewBox="0 0 24 25" fill="none" xmlns="http://www.w3.org/2000/svg">
<path d="M17.143 14.6207V18.9064C17.143 19.3611 16.9624 19.7971 16.6409 20.1186C16.3194 20.4401 15.8834 20.6207 15.4287 20.6207L5.143 20.6207C4.68834 20.6207 4.2523 20.4401 3.93081 20.1186C3.60932 19.7971 3.42871 19.3611 3.42871 18.9064L3.42871 10.335C3.42871 9.88036 3.60932 9.44432 3.93081 9.12283C4.2523 8.80134 4.68834 8.62073 5.143 8.62073L7.71443 8.62073" stroke="#15ABFF" stroke-width="2.05714" stroke-miterlimit="10" stroke-linecap="square"/>
<path d="M9.42871 15.4779C9.42871 13.2046 10.3318 11.0245 11.9392 9.41701C13.5467 7.80955 15.7269 6.90649 18.0001 6.90649L20.5716 6.90649" stroke="#15ABFF" stroke-width="2.05714" stroke-miterlimit="10"/>
<path d="M17.1431 10.335L20.5716 6.90648L17.1431 3.47791" stroke="#15ABFF" stroke-width="2.05714" stroke-miterlimit="10" stroke-linecap="square"/>
</svg>
